<svg viewBox="0 0 200 220" xmlns="http://www.w3.org/2000/svg">
  <!-- Horns -->
  <path d="M 95 70 Q 85 40 75 50" fill="none" stroke="#8b0000" stroke-width="5" stroke-linecap="round"/>
  <path d="M 105 70 Q 115 40 125 50" fill="none" stroke="#8b0000" stroke-width="5" stroke-linecap="round"/>
  <polygon points="75,50 70,48 78,55" fill="#8b0000"/>
  <polygon points="125,50 130,48 122,55" fill="#8b0000"/>
  <!-- Glass outline -->
  <rect x="65" y="85" width="70" height="75" rx="10" fill="none" stroke="#1a1a2e" stroke-width="3.5"/>
  <!-- Liquid inside -->
  <rect x="67" y="120" width="66" height="38" rx="8" fill="#c41e3a" opacity="0.8"/>
  <!-- Highlight on glass -->
  <ellipse cx="78" cy="95" rx="6" ry="12" fill="white" opacity="0.4"/>
  <!-- Sound waves -->
  <path d="M 45 110 Q 40 120 45 130" fill="none" stroke="#c41e3a" stroke-width="3" stroke-linecap="round"/>
  <path d="M 35 100 Q 28 115 35 130" fill="none" stroke="#c41e3a" stroke-width="3" stroke-linecap="round"/>
  <path d="M 55 100 Q 48 115 55 130" fill="none" stroke="#c41e3a" stroke-width="3" stroke-linecap="round"/>
  <!-- Tail -->
  <path d="M 125 155 Q 145 160 155 145" fill="none" stroke="#c41e3a" stroke-width="3" stroke-linecap="round"/>
  <polygon points="155,145 160,140 152,148" fill="#c41e3a"/>
</svg>