<svg viewBox="0 0 200 200" xmlns="http://www.w3.org/2000/svg">
  <defs>
    <linearGradient id="circleGrad" x1="0%" y1="0%" x2="100%" y2="100%">
      <stop offset="0%" style="stop-color:#FFD700;stop-opacity:1" />
      <stop offset="100%" style="stop-color:#FFA500;stop-opacity:1" />
    </linearGradient>
  </defs>
  
  <!-- Outer circle with gradient -->
  <circle cx="100" cy="100" r="90" fill="none" stroke="url(#circleGrad)" stroke-width="8"/>
  <circle cx="100" cy="100" r="85" fill="none" stroke="url(#circleGrad)" stroke-width="2" opacity="0.5"/>
  
  <!-- NFC Square -->
  <rect x="65" y="65" width="70" height="70" rx="8" fill="none" stroke="#333333" stroke-width="4"/>
  <rect x="75" y="75" width="50" height="50" rx="6" fill="none" stroke="#333333" stroke-width="3"/>
  <rect x="85" y="85" width="30" height="30" rx="4" fill="none" stroke="#333333" stroke-width="2"/>
  
  <!-- Sound waves -->
  <path d="M 45 100 Q 40 95 40 100 Q 40 105 45 100" fill="none" stroke="#333333" stroke-width="2.5" stroke-linecap="round"/>
  <path d="M 35 100 Q 28 90 28 100 Q 28 110 35 100" fill="none" stroke="#333333" stroke-width="2.5" stroke-linecap="round"/>
  
  <!-- Decorative dots -->
  <circle cx="130" cy="50" r="2.5" fill="#FFD700"/>
  <circle cx="155" cy="70" r="2.5" fill="#FFA500"/>
  <circle cx="160" cy="110" r="2.5" fill="#FFD700"/>
  <circle cx="145" cy="155" r="2.5" fill="#FFA500"/>
  <circle cx="100" cy="165" r="2.5" fill="#FFD700"/>
  <circle cx="50" cy="155" r="2.5" fill="#FFA500"/>
  <circle cx="30" cy="120" r="2.5" fill="#FFD700"/>
</svg>