<svg xmlns="http://www.w3.org/2000/svg" viewBox="0 0 200 240">
  <!-- Background circles -->
  <circle cx="100" cy="100" r="85" fill="none" stroke="#87CEEB" stroke-width="6"/>
  <circle cx="100" cy="100" r="75" fill="none" stroke="#FFD700" stroke-width="4"/>
  
  <!-- Glass with sound waves -->
  <rect x="70" y="80" width="60" height="80" rx="8" fill="none" stroke="#1a1a2e" stroke-width="3"/>
  
  <!-- Sound waves (left) -->
  <path d="M 50 110 Q 45 120 50 130" fill="none" stroke="#c41e3a" stroke-width="3" stroke-linecap="round"/>
  <path d="M 40 100 Q 33 120 40 140" fill="none" stroke="#c41e3a" stroke-width="3" stroke-linecap="round"/>
  <path d="M 60 100 Q 53 120 60 140" fill="none" stroke="#c41e3a" stroke-width="3" stroke-linecap="round"/>
  
  <!-- Party hat -->
  <polygon points="130,75 145,45 140,75" fill="#FF69B4"/>
  <polygon points="140,75 155,60 150,75" fill="#FFD700"/>
  <polygon points="150,75 160,45 155,75" fill="#90EE90"/>
  
  <!-- Hat pompom -->
  <circle cx="147" cy="42" r="5" fill="#FF1493"/>
  
  <!-- Decorative confetti -->
  <circle cx="50" cy="40" r="4" fill="#FFD700"/>
  <polygon points="80,35 82,42 78,42" fill="#FF69B4"/>
  <circle cx="110" cy="30" r="4" fill="#87CEEB"/>
  <polygon points="140,38 142,45 138,45" fill="#90EE90"/>
  <circle cx="160" cy="40" r="3" fill="#FFD700"/>
  
  <polygon points="65,170 68,178 62,178" fill="#FF69B4"/>
  <circle cx="100" cy="180" r="4" fill="#87CEEB"/>
  <polygon points="135,170 138,177 132,177" fill="#90EE90"/>
  
  <!-- Text -->
  <text x="100" y="220" font-size="18" font-weight="bold" text-anchor="middle" fill="#1a1a2e" font-family="Arial">tagshot</text>
  <text x="100" y="240" font-size="14" text-anchor="middle" fill="#FF69B4" font-family="Arial, italic">Party edition</text>
</svg>